<?xml version="1.0" encoding="UTF-8" standalone="no"?>
<svg
   xmlns:dc="http://purl.org/dc/elements/1.1/"
   xmlns:cc="http://creativecommons.org/ns#"
   xmlns:rdf="http://www.w3.org/1999/02/22-rdf-syntax-ns#"
   xmlns:svg="http://www.w3.org/2000/svg"
   xmlns="http://www.w3.org/2000/svg"
   xmlns:sodipodi="http://sodipodi.sourceforge.net/DTD/sodipodi-0.dtd"
   xmlns:inkscape="http://www.inkscape.org/namespaces/inkscape"
   id="Layer_1"
   data-name="Layer 1"
   viewBox="0 0 1000 1000"
   x="0px"
   y="0px"
   width="1000px"
   height="1000px"
   version="1.1"
   sodipodi:docname="authbg.svg"
   inkscape:version="1.0.1 (3bc2e813f5, 2020-09-07)">
  <metadata
     id="metadata390">
    <rdf:RDF>
      <cc:Work
         rdf:about="">
        <dc:format>image/svg+xml</dc:format>
        <dc:type
           rdf:resource="http://purl.org/dc/dcmitype/StillImage" />
        <dc:title></dc:title>
      </cc:Work>
    </rdf:RDF>
  </metadata>
  <defs
     id="defs388" />
  <sodipodi:namedview
     pagecolor="#ffffff"
     bordercolor="#666666"
     borderopacity="1"
     objecttolerance="10"
     gridtolerance="10"
     guidetolerance="10"
     inkscape:pageopacity="0"
     inkscape:pageshadow="2"
     inkscape:window-width="1920"
     inkscape:window-height="1017"
     id="namedview386"
     showgrid="false"
     inkscape:zoom="1.2020815"
     inkscape:cx="571.64264"
     inkscape:cy="225.10607"
     inkscape:window-x="-8"
     inkscape:window-y="-8"
     inkscape:window-maximized="1"
     inkscape:current-layer="Layer_1"
     inkscape:document-rotation="0" />
  <path
     d="M 893.81499,233.32785 A 33.036925,36.470234 0 0 0 870.40811,222.6352 h -278.0188 a 33.092929,36.532058 0 1 1 0,-73.06411 H 714.0822 a 33.09293,36.53206 0 1 0 0,-73.064119 H 328.09136 a 33.09293,36.53206 0 1 0 0,73.064119 h 94.12393 a 33.092929,36.532058 0 1 1 0,73.06411 H 171.76546 a 33.092931,36.53206 0 1 0 0,73.06412 h 158.7315 a 33.092929,36.532058 0 1 1 0,73.06411 h -66.80953 a 33.092931,36.53206 0 1 0 0,73.06412 h 125.54948 v 73.0641 h -96.75863 a 33.092931,36.53206 0 1 0 0,73.06412 h 114.65427 a 33.092929,36.532058 0 1 1 0,73.06411 H 253.37771 a 33.092931,36.53206 0 1 0 0,73.06412 h 494.43382 a 33.092931,36.53206 0 1 0 0,-73.06412 H 626.11864 a 33.092929,36.532058 0 1 1 0,-73.06411 h 56.90711 a 33.092931,36.53206 0 1 0 0,-73.06412 h -56.90711 a 33.092929,36.532058 0 1 1 0,-73.0641 h 152.36749 a 33.092931,36.53206 0 1 0 0,-73.06412 h -22.87231 a 33.092929,36.532058 0 1 1 0,-73.06411 h 114.79429 a 33.101838,36.541892 0 0 0 23.40688,-62.37147 z M 615.57982,358.07077 a 32.98474,36.412625 0 0 1 -23.39416,10.69266 H 449.98789 a 33.092929,36.532058 0 1 1 0,-73.06411 h 142.19777 a 33.092929,36.532058 0 0 1 23.39416,62.37145 z"
     fill="#825d7e"
     opacity="0.5"
     id="path201"
     style="opacity:0.6;fill:#0019fa;fill-opacity:1;stroke-width:1.33731" />
  <rect
     x="64.998772"
     y="799.51715"
     width="912.17731"
     height="33.721897"
     rx="15.27366"
     fill="#3d233c"
     opacity="0.69"
     id="rect203"
     style="stroke-width:1.33731" />
  <rect
     x="112.09383"
     y="361.38959"
     width="100.76033"
     height="73.06411"
     rx="33.09293"
     fill="#825d7e"
     opacity="0.5"
     id="rect205"
     style="opacity:0.6;fill:#0019fa;fill-opacity:1;stroke-width:1.33731" />
  <path
     d="m 847.4747,509.8151 h 24.23548 a 5.7670793,6.3664135 0 0 1 5.76199,6.36642 v 5.92944 h -35.76582 v -5.92944 a 5.7670793,6.3664135 0 0 1 5.76835,-6.36642 z"
     fill="#96628a"
     id="path207"
     style="stroke-width:1.33731" />
  <path
     d="m 873.74667,509.8151 h -3.91133 a 3.4900312,3.852727 0 0 1 3.73186,3.5127 v 8.78034 h 3.91261 v -8.77753 a 3.4913041,3.8541321 0 0 0 -3.73314,-3.51551 z"
     fill="#84517a"
     id="path209"
     style="stroke-width:1.33731" />
  <rect
     x="834.21454"
     y="522.11096"
     width="50.755642"
     height="61.023994"
     rx="7.9550309"
     fill="#cc83b4"
     id="rect211"
     style="stroke-width:1.33731" />
  <path
     d="m 877.01523,522.11096 h -5.83326 a 7.955031,8.7817445 0 0 1 7.95503,8.78174 v 43.46049 a 7.955031,8.7817445 0 0 1 -7.95503,8.78175 h 5.83326 a 7.955031,8.7817445 0 0 0 7.95503,-8.78175 V 530.8927 a 7.955031,8.7817445 0 0 0 -7.95503,-8.78174 z"
     fill="#bc71a7"
     id="path213"
     style="stroke-width:1.33731" />
  <rect
     x="425.45206"
     y="148.96548"
     width="48.540966"
     height="90.627602"
     fill="#ab8fb8"
     id="rect215"
     style="stroke-width:1.33731" />
  <rect
     x="417.42825"
     y="148.96548"
     width="48.540966"
     height="90.627602"
     fill="#dfcce2"
     id="rect217"
     style="stroke-width:1.33731" />
  <rect
     x="417.42825"
     y="229.05499"
     width="48.540966"
     height="9.1330137"
     fill="#a380af"
     opacity="0.82"
     id="rect219"
     style="stroke-width:1.33731" />
  <rect
     x="465.96927"
     y="229.05499"
     width="8.0237627"
     height="9.1330137"
     fill="#a380af"
     opacity="0.82"
     id="rect221"
     style="stroke-width:1.33731" />
  <rect
     x="399.84573"
     y="238.18799"
     width="109.89397"
     height="57.355331"
     fill="#ab8fb8"
     id="rect223"
     style="stroke-width:1.33731" />
  <polygon
     points="372.262,676.447 432.998,509.577 396.854,496.422 331.33,676.447 "
     fill="#ac91ba"
     id="polygon225"
     transform="matrix(1.2728049,0,0,1.4050791,-115.3157,-169.28492)" />
  <polygon
     points="356.556,676.447 417.292,509.577 381.148,496.422 315.624,676.447 "
     fill="#dfcce2"
     id="polygon227"
     transform="matrix(1.2728049,0,0,1.4050791,-115.3157,-169.28492)" />
  <polygon
     points="432.998,509.577 396.854,496.422 395.017,501.47 381.148,496.422 354.611,569.333 411.248,569.333 "
     fill="#a380af"
     opacity="0.82"
     id="polygon229"
     transform="matrix(1.2728049,0,0,1.4050791,-115.3157,-169.28492)" />
  <rect
     x="247.53554"
     y="781.17676"
     width="71.625824"
     height="36.508171"
     fill="#dfcce2"
     id="rect231"
     style="stroke-width:1.33731" />
  <rect
     x="310.20975"
     y="781.17676"
     width="71.625824"
     height="36.508171"
     fill="#b39fc1"
     id="rect233"
     style="stroke-width:1.33731" />
  <path
     d="m 753.52642,412.76349 -9.44803,2.75675 a 2.9605444,3.2682141 0 0 0 -1.9563,3.15863 114.05478,125.90773 0 0 0 1.80229,29.0486 c 4.23462,27.00983 15.06111,59.31541 30.98644,88.4146 1.97285,3.60543 5.69835,2.5179 5.80017,-1.68609 0.81969,-33.98465 -4.22698,-67.97773 -12.63641,-93.77077 a 114.02169,125.87121 0 0 0 -11.43488,-26.23704 2.9592715,3.266809 0 0 0 -3.11328,-1.68468 z"
     fill="#f7cd84"
     id="path235"
     style="stroke-width:1.33731" />
  <path
     d="m 768.07458,440.6796 a 114.02169,125.87121 0 0 0 -11.43488,-26.23705 2.9592715,3.266809 0 0 0 -3.11328,-1.67906 l -4.27026,1.2463 c 1.06788,1.495 2.23377,3.24011 3.43658,5.25359 0,0 1.77174,3.09117 3.51421,6.52519 9.94061,19.57837 13.77175,37.48891 16.95758,52.86047 2.27323,10.97087 3.12474,18.68755 4.82902,34.14343 0.59185,5.36881 2.1205,19.96055 0.53076,25.43193 a 3.3309306,3.6770921 0 0 0 2.18541,-3.77124 c 0.82096,-33.98745 -4.22571,-67.98053 -12.63514,-93.77356 z"
     fill="#f8b461"
     id="path237"
     style="stroke-width:1.33731" />
  <path
     d="m 737.81746,372.98429 a 0.46839222,0.51706911 0 0 0 -0.82987,-0.36673 c -2.94017,3.98902 -9.89097,15.03435 -7.72338,28.61303 0.23675,1.47674 2.71235,15.84086 12.49767,20.77129 a 12.532037,13.834409 0 0 0 6.05092,1.39102 c 5.87526,-0.48334 11.19305,-6.40435 12.44294,-12.76654 1.61391,-8.21691 -3.6084,-16.90591 -9.10564,-20.43266 -2.83328,-1.81817 -5.31524,-1.99382 -8.67672,-5.44188 a 14.022492,15.479756 0 0 1 -4.32754,-7.37666 12.134923,13.396024 0 0 1 -0.32838,-4.39087 z"
     fill="#6f5a66"
     id="path239"
     style="stroke-width:1.33731" />
  <path
     d="m 751.1501,390.1937 c -2.83328,-1.81817 -5.31524,-1.99382 -8.67672,-5.44188 a 14.022492,15.479756 0 0 1 -4.32754,-7.37666 12.091647,13.348251 0 0 1 -0.3411,-4.26301 0.49512113,0.54657578 0 0 0 -0.39076,-0.5789 13.062798,14.420326 0 0 0 -0.1871,5.63859 14.937639,16.490009 0 0 0 3.84387,8.13541 c 3.16292,3.94405 5.68053,4.38666 8.43106,6.57717 5.3356,4.24896 9.9928,13.84565 7.71448,22.23538 a 15.187109,16.765404 0 0 1 -2.09632,4.72668 15.663138,17.290904 0 0 0 5.13195,-9.22012 c 1.61773,-8.21691 -3.60458,-16.90591 -9.10182,-20.43266 z"
     fill="#6b4c5f"
     id="path241"
     style="stroke-width:1.33731" />
  <path
     d="m 742.47338,384.75182 a 14.017401,15.474136 0 0 1 -4.32754,-7.37666 12.127286,13.387594 0 0 1 -0.33092,-4.40212 0.46584662,0.51425896 0 0 0 -0.8286,-0.35829 c -2.70471,3.67006 -8.79635,13.32858 -8.05686,25.43194 0,0 0.0802,1.04959 0.10308,1.2758 v 23.13745 a 2.3954189,2.644359 0 0 0 2.39542,2.64435 v 0 a 2.3966918,2.645764 0 0 0 2.39541,-2.64435 v -21.92486 a 1.708105,1.885617 0 1 1 3.41621,0 v 4.09581 a 2.0772177,2.2930891 0 0 0 1.66739,2.30011 2.0046679,2.2129997 0 0 0 2.34068,-2.18069 v -1.47673 c 0,-1.67205 -0.0751,-5.84373 2.60797,-6.57999 5.7989,-1.59477 6.04202,-2.63311 7.29064,-6.49989 v 0 c -2.82946,-1.81817 -5.31143,-1.99382 -8.6729,-5.44188 z"
     fill="#ed4a5e"
     id="path243"
     style="stroke-width:1.33731" />
  <rect
     x="-892.59686"
     y="-816.37811"
     width="12.72805"
     height="210.76187"
     transform="scale(-1)"
     fill="#de6173"
     id="rect245"
     style="stroke-width:1.33731" />
  <rect
     x="-879.8689"
     y="-816.37811"
     width="15.27366"
     height="210.76187"
     transform="scale(-1)"
     fill="#f37f82"
     id="rect247"
     style="stroke-width:1.33731" />
  <rect
     x="798.41058"
     y="768.37079"
     width="73.822685"
     height="18.266027"
     fill="#dd6b80"
     id="rect249"
     style="stroke-width:1.33731" />
  <rect
     x="798.41058"
     y="605.61627"
     width="73.822685"
     height="56.203163"
     fill="#dd6b80"
     id="rect251"
     style="stroke-width:1.33731" />
  <rect
     x="847.60834"
     y="622.97461"
     width="13.704291"
     height="8.4304743"
     rx="3.8184149"
     fill="#f37f82"
     opacity="0.34"
     id="rect253"
     style="stroke-width:1.33731" />
  <rect
     x="829.2774"
     y="636.03058"
     width="37.137901"
     height="8.4304743"
     rx="3.8184149"
     fill="#f37f82"
     opacity="0.34"
     id="rect255"
     style="stroke-width:1.33731" />
  <rect
     x="819.50226"
     y="622.97461"
     width="25.047531"
     height="8.4304743"
     rx="3.8184149"
     fill="#f37f82"
     opacity="0.34"
     id="rect257"
     style="stroke-width:1.33731" />
  <polygon
     points="397.473,583.261 385.029,617.45 490.58,617.45 490.58,583.261 "
     fill="#d1b9d6"
     id="polygon259"
     transform="matrix(1.2728049,0,0,1.4050791,-115.3157,-169.28492)" />
  <polygon
     points="397.473,583.261 385.029,617.45 391.848,617.45 404.292,583.261 "
     fill="#a380af"
     opacity="0.87"
     id="polygon261"
     transform="matrix(1.2728049,0,0,1.4050791,-115.3157,-169.28492)" />
  <polygon
     points="723.134,391.086 718.273,390.368 712.248,401.188 725.777,403.184 "
     fill="#c5e1df"
     id="polygon263"
     transform="matrix(1.2728049,0,0,1.4050791,-115.3157,-169.28492)" />
  <path
     d="m 791.24157,394.40657 17.21916,2.80491 -15.65059,117.0848 a 7.6368297,8.4304748 0 0 1 -8.66984,7.10948 l -2.10911,-0.34356 a 7.6368297,8.4304748 0 0 1 -6.4402,-9.57084 z"
     fill="#f7cd84"
     id="path265"
     style="stroke-width:1.33731" />
  <path
     d="m 791.24141,394.41187 4.46375,0.72712 -16.76615,125.43051 v 0 a 4.5120936,4.9810054 0 0 1 -3.80508,-5.65478 z"
     fill="#f8b461"
     id="path267"
     style="stroke-width:1.33731" />
  <path
     d="m 803.99604,396.48861 4.46376,0.72713 -16.10673,120.4973 a 4.5120936,4.9810054 0 0 1 -5.12243,4.20052 v 0 z"
     fill="#f8b461"
     id="path269"
     style="stroke-width:1.33731" />
  <path
     d="m 805.09284,380.22184 -1.37845,-6.96919 a 0.86168896,0.95123856 0 0 0 -1.6661,-0.27117 l -3.14256,6.23152 z"
     fill="#6f5a66"
     id="path271"
     style="stroke-width:1.33731" />
  <polygon
     points="723.134,391.086 720.829,390.745 722.269,402.667 725.777,403.184 "
     fill="#a5ceca"
     id="polygon273"
     transform="matrix(1.2728049,0,0,1.4050791,-115.3157,-169.28492)" />
  <rect
     x="-704.22174"
     y="-816.37811"
     width="12.72805"
     height="210.76187"
     transform="scale(-1)"
     fill="#de6173"
     id="rect275"
     style="stroke-width:1.33731" />
  <rect
     x="-691.49371"
     y="-816.37811"
     width="15.27366"
     height="210.76187"
     transform="scale(-1)"
     fill="#f37f82"
     id="rect277"
     style="stroke-width:1.33731" />
  <rect
     x="-811.13739"
     y="-816.37811"
     width="12.72805"
     height="210.76187"
     transform="scale(-1)"
     fill="#de6173"
     id="rect279"
     style="stroke-width:1.33731" />
  <rect
     x="-798.40936"
     y="-816.37811"
     width="15.27366"
     height="210.76187"
     transform="scale(-1)"
     fill="#f37f82"
     id="rect281"
     style="stroke-width:1.33731" />
  <rect
     x="697.22253"
     y="605.61627"
     width="85.914337"
     height="56.203163"
     fill="#f37f82"
     id="rect283"
     style="stroke-width:1.33731" />
  <rect
     x="697.22253"
     y="768.37079"
     width="85.914337"
     height="18.266027"
     fill="#f37f82"
     id="rect285"
     style="stroke-width:1.33731" />
  <polygon
     points="553.47,676.447 487.947,496.422 451.803,509.577 512.539,676.447 "
     fill="#ac91ba"
     id="polygon287"
     transform="matrix(1.2728049,0,0,1.4050791,-115.3157,-169.28492)" />
  <polygon
     points="541.919,676.447 476.395,496.422 440.251,509.577 500.987,676.447 "
     fill="#dfcce2"
     id="polygon289"
     transform="matrix(1.2728049,0,0,1.4050791,-115.3157,-169.28492)" />
  <polygon
     points="462.001,569.333 514.484,569.333 487.947,496.422 477.746,500.135 476.395,496.422 440.251,509.577 "
     fill="#a380af"
     opacity="0.82"
     id="polygon291"
     transform="matrix(1.2728049,0,0,1.4050791,-115.3157,-169.28492)" />
  <path
     d="m 260.99035,574.75505 h 10.63811 v 38.65232 h -24.47859 v -23.37349 a 13.840481,15.27883 0 0 1 13.84048,-15.27883 z"
     fill="#ab8fb8"
     id="path293"
     style="stroke-width:1.33731" />
  <path
     d="m 260.99035,574.75505 h 365.11556 v 38.65232 H 247.14987 v -23.37349 a 13.840481,15.27883 0 0 1 13.84048,-15.27883 z"
     fill="#dfcce2"
     id="path295"
     style="stroke-width:1.33731" />
  <path
     d="m 615.46781,574.75505 h 10.6381 v 38.65232 h -24.47858 v -23.37349 a 13.840481,15.27883 0 0 1 13.84048,-15.27883 z"
     fill="#ab8fb8"
     id="path297"
     style="stroke-width:1.33731" />
  <rect
     x="297.74387"
     y="295.54333"
     width="305.95938"
     height="279.2117"
     fill="#ab8fb8"
     id="rect299"
     style="stroke-width:1.33731" />
  <rect
     x="278.33871"
     y="295.54333"
     width="305.95938"
     height="279.2117"
     fill="#fffdff"
     id="rect301"
     style="stroke-width:1.33731" />
  <path
     d="m 461.00147,415.65794 a 36.889707,40.723408 0 0 0 -13.48282,-14.88541 37.293186,41.168818 0 0 0 -37.19517,0 36.902434,40.737459 0 0 0 -13.49174,14.88541 37.293186,41.168818 0 0 0 0,41.06063 36.889707,40.723408 0 0 0 13.4841,14.88541 37.293186,41.168818 0 0 0 37.19645,0 36.866795,40.698117 0 0 0 13.48282,-14.88541 37.293186,41.168818 0 0 0 0,-41.06063 z m -32.08232,-14.40627 a 30.49768,33.667101 0 0 1 20.89055,8.73396 l -0.60331,0.93158 a 20.702173,22.853612 0 0 1 -1.80865,2.1568 30.953344,34.170119 0 0 1 -3.15911,3.03637 42.585508,47.011138 0 0 1 -4.65592,3.27524 44.656362,49.297201 0 0 1 -6.27238,3.22184 137.75186,152.0675 0 0 0 -11.86763,-20.34413 31.925767,35.243599 0 0 1 7.47645,-1.01166 z m -24.79678,13.25972 a 31.223179,34.467996 0 0 1 11.28851,-9.90439 165.99285,183.2434 0 0 1 11.77217,20.13057 114.45189,126.34612 0 0 1 -29.23633,4.26019 31.294456,34.54668 0 0 1 6.17565,-14.48637 z m -4.72847,34.2741 a 31.048804,34.2755 0 0 1 -2.12305,-12.59653 7.8392058,8.6538823 0 0 1 0.0484,-1.12406 112.86471,124.59398 0 0 0 32.46925,-4.95291 q 1.54519,3.30053 2.55706,5.91117 a 3.9826067,4.3964926 0 0 1 -0.62749,0.23886 c -0.29019,0.09 -0.49893,0.15035 -0.62877,0.18688 l -1.78192,0.69271 a 37.074262,40.927145 0 0 0 -4.80102,2.55583 q -2.96691,1.81255 -6.29529,4.315 a 43.079357,47.556308 0 0 0 -6.87316,6.63198 40.414103,44.614072 0 0 0 -5.95799,8.86604 31.692843,34.986471 0 0 1 -5.986,-10.72497 z m 29.52907,22.34077 a 31.056441,34.28393 0 0 1 -20.16633,-7.98929 l 0.72423,0.58593 a 25.812485,28.495004 0 0 1 4.96394,-7.8825 41.839645,46.187761 0 0 1 6.31949,-6.09805 62.187978,68.650761 0 0 1 6.60966,-4.36839 q 3.5715,-2.04439 4.87103,-2.60642 1.29954,-0.56203 2.07468,-0.87958 l 0.0968,-0.0534 h 0.0968 a 130.37596,143.92507 0 0 1 6.75351,26.52227 31.634295,34.921836 0 0 1 -12.34749,2.76942 z m 26.63217,-16.05866 a 31.601201,34.885304 0 0 1 -8.9249,10.09268 135.93557,150.06245 0 0 0 -6.17565,-24.97669 45.55369,50.287782 0 0 1 19.72848,1.5456 31.206632,34.44973 0 0 1 -4.63174,13.33841 z m 4.53246,-19.35777 q -0.48112,-0.10824 -1.20535,-0.24027 c -0.48239,-0.0871 -1.06915,-0.1953 -1.76156,-0.31895 -0.69241,-0.12365 -1.46372,-0.23887 -2.31523,-0.34565 -0.85151,-0.10675 -1.76156,-0.20374 -2.72635,-0.29366 -0.96478,-0.09 -1.99448,-0.15878 -3.08783,-0.21217 -1.09333,-0.0534 -2.20322,-0.0801 -3.32965,-0.0801 -1.12644,0 -2.30759,0.0352 -3.54476,0.10675 -1.23717,0.0717 -2.43488,0.19531 -3.59313,0.37234 a 5.8294467,6.4352624 0 0 1 -0.36275,-0.87958 c -0.14383,-0.40746 -0.25456,-0.7194 -0.31183,-0.93156 q -0.9177,-2.23829 -2.12432,-5.05829 a 53.235067,58.767434 0 0 0 11.16886,-6.89612 40.104811,44.272638 0 0 0 3.42512,-3.22325 27.780241,30.667256 0 0 0 2.09885,-2.36897 q 0.4824,-0.66881 0.91642,-1.30532 l 0.0496,-0.0534 a 30.948252,34.164499 0 0 1 7.18752,21.83493 z"
     fill="#ea3268"
     id="path303"
     style="stroke-width:1.33731" />
  <rect
     x="490.98495"
     y="781.17676"
     width="71.625824"
     height="36.508171"
     fill="#dfcce2"
     id="rect305"
     style="stroke-width:1.33731" />
  <rect
     x="553.65796"
     y="781.17676"
     width="71.625824"
     height="36.508171"
     fill="#b39fc1"
     id="rect307"
     style="stroke-width:1.33731" />
  <rect
     x="663.49323"
     y="583.13501"
     width="134.91733"
     height="22.481266"
     fill="#f37f82"
     id="rect309"
     style="stroke-width:1.33731" />
  <rect
     x="798.41058"
     y="583.13501"
     width="101.8244"
     height="22.481266"
     fill="#de6173"
     id="rect311"
     style="stroke-width:1.33731" />
  <rect
     x="697.22253"
     y="605.61627"
     width="85.914337"
     height="7.7911639"
     fill="#e26971"
     id="rect313"
     style="stroke-width:1.33731" />
  <rect
     x="-661.81946"
     y="811.13867"
     width="56.203163"
     height="5.0912199"
     transform="rotate(-90)"
     fill="#ce5f78"
     id="rect315"
     style="stroke-width:1.33731" />
  <rect
     x="-786.63684"
     y="811.13739"
     width="18.266027"
     height="5.0912199"
     transform="rotate(-90)"
     fill="#ce5f78"
     id="rect317"
     style="stroke-width:1.33731" />
  <rect
     x="-872.23206"
     y="-613.40741"
     width="58.54903"
     height="7.7911639"
     transform="scale(-1)"
     fill="#ce5f78"
     id="rect319"
     style="stroke-width:1.33731" />
  <rect
     x="783.1369"
     y="605.61627"
     width="15.27366"
     height="0.79105955"
     fill="#e26971"
     id="rect321"
     style="stroke-width:1.33731" />
  <rect
     x="676.22131"
     y="605.61627"
     width="15.27366"
     height="0.79105955"
     fill="#e26971"
     id="rect323"
     style="stroke-width:1.33731" />
  <ellipse
     cx="743.69525"
     cy="635.14539"
     fill="#e26971"
     id="circle325"
     rx="7.0004277"
     ry="7.7279348"
     style="stroke-width:1.33731" />
  <ellipse
     cx="740.17969"
     cy="634.42035"
     fill="#633047"
     id="circle327"
     rx="7.0004277"
     ry="7.7279348"
     style="stroke-width:1.33731" />
  <ellipse
     cx="685.00446"
     cy="700.62732"
     rx="2.6943026"
     ry="2.4304705"
     transform="matrix(0.99519113,-0.09795211,0.08050403,0.99675428,0,0)"
     fill="#f4cee1"
     id="ellipse329"
     style="stroke-width:1.33741" />
  <rect
     x="759.31384"
     y="617.14917"
     width="21.59568"
     height="8.4304743"
     rx="3.8184149"
     fill="#e26971"
     opacity="0.4"
     id="rect331"
     style="stroke-width:1.33731" />
  <rect
     x="756.30109"
     y="630.2052"
     width="17.012312"
     height="8.4304743"
     rx="3.8184149"
     fill="#e26971"
     opacity="0.4"
     id="rect333"
     style="stroke-width:1.33731" />
  <rect
     x="702.78601"
     y="645.77765"
     width="53.516357"
     height="8.4304743"
     rx="3.8184149"
     fill="#e26971"
     opacity="0.2"
     id="rect335"
     style="stroke-width:1.33731" />
  <rect
     x="717.81024"
     y="645.77765"
     width="14.319056"
     height="8.4304743"
     rx="3.8184149"
     fill="#e26971"
     opacity="0.39"
     id="rect337"
     style="stroke-width:1.33731" />
  <rect
     x="704.22296"
     y="617.14917"
     width="39.473499"
     height="8.4304743"
     rx="3.8184149"
     fill="#e26971"
     opacity="0.4"
     id="rect339"
     style="stroke-width:1.33731" />
  <path
     d="m 738.91462,471.89904 h 83.98858 a 3.8184149,4.2152373 0 0 1 3.81841,4.21524 v 95.78003 a 10.18244,11.240633 0 0 1 -10.18243,11.24063 h -71.26054 a 10.18244,11.240633 0 0 1 -10.18243,-11.24063 v -95.78003 a 3.8184149,4.2152373 0 0 1 3.81841,-4.21524 z"
     fill="#ea3268"
     id="path341"
     style="stroke-width:1.33731" />
  <path
     d="m 805.12594,471.89904 v 99.99527 a 10.18244,11.240633 0 0 1 -10.18245,11.24063 h 21.59569 a 10.18244,11.240633 0 0 0 10.18243,-11.24063 v -95.78003 a 3.8184149,4.2152373 0 0 0 -3.81841,-4.21524 z"
     fill="#aa235b"
     opacity="0.69"
     id="path343"
     style="stroke-width:1.33731" />
  <path
     d="m 151.89952,684.69828 h 43.74885 a 5.7670793,6.3664135 0 0 1 5.76707,6.36642 v 15.89986 H 146.13116 V 691.0647 a 5.7670793,6.3664135 0 0 1 5.76836,-6.36642 z"
     fill="#f8b461"
     id="path345"
     style="stroke-width:1.33731" />
  <path
     d="m 195.64837,684.69828 h -6.04583 a 5.7670793,6.3664135 0 0 1 5.76708,6.36642 v 15.89986 h 6.04582 V 691.0647 a 5.7670793,6.3664135 0 0 0 -5.76707,-6.36642 z"
     fill="#e29c50"
     id="path347"
     style="stroke-width:1.33731" />
  <rect
     x="134.55247"
     y="706.96466"
     width="78.44297"
     height="110.51229"
     rx="7.9550309"
     fill="#f7cd84"
     id="rect349"
     style="stroke-width:1.33731" />
  <path
     d="m 203.65686,706.96456 h -10.45864 a 9.33857,10.309066 0 0 1 9.33857,10.30907 v 89.89556 a 9.33857,10.309066 0 0 1 -9.33857,10.30907 h 10.45864 a 9.33857,10.309066 0 0 0 9.33856,-10.30907 v -89.89556 a 9.33857,10.309066 0 0 0 -9.33856,-10.30907 z"
     fill="#f8b461"
     id="path351"
     style="stroke-width:1.33731" />
  <path
     d="m 146.13116,706.96456 h 6.53713 v 27.16581 a 2.7836245,3.072908 0 0 1 -2.78363,3.07291 h -0.96605 a 2.7836245,3.072908 0 0 1 -2.78363,-3.07291 v -27.16581 z"
     fill="#ed4a5e"
     id="path353"
     style="stroke-width:1.33731" />
  <rect
     x="152.66832"
     y="706.96466"
     width="6.5371261"
     height="9.8959732"
     fill="#ed4a5e"
     id="rect355"
     style="stroke-width:1.33731" />
  <rect
     x="152.66832"
     y="712.05103"
     width="6.5371261"
     height="8.5218048"
     rx="2.7836246"
     fill="#f7cd84"
     id="rect357"
     style="stroke-width:1.33731" />
  <path
     d="m 159.20541,706.96456 h 6.53714 v 11.08467 a 2.7836245,3.072908 0 0 1 -2.78363,3.07292 h -0.96861 a 2.7836245,3.072908 0 0 1 -2.78362,-3.07292 v -11.08467 z"
     fill="#ed4a5e"
     id="path359"
     style="stroke-width:1.33731" />
  <rect
     x="381.68155"
     y="238.18799"
     width="109.89397"
     height="57.355331"
     fill="#dfcce2"
     id="rect361"
     style="stroke-width:1.33731" />
  <ellipse
     cx="444.41556"
     cy="266.86566"
     fill="#a380af"
     opacity="0.82"
     id="circle363"
     rx="13.09589"
     ry="14.456859"
     style="stroke-width:1.33731" />
  <ellipse
     cx="441.021"
     cy="266.86566"
     fill="#736177"
     id="circle365"
     rx="13.09589"
     ry="14.456859"
     style="stroke-width:1.33731" />
  <rect
     x="134.55247"
     y="742.42877"
     width="78.44297"
     height="36.83696"
     fill="#ea3268"
     id="rect367"
     style="stroke-width:1.33731" />
  <rect
     x="203.09683"
     y="742.42877"
     width="9.8986044"
     height="36.83696"
     fill="#d33167"
     id="rect369"
     style="stroke-width:1.33731" />
  <path
     d="m 723.7097,764.89036 a 4.4357253,4.8967008 0 1 1 0,-9.792 h 53.52908 v -3.48038 H 723.7097 a 7.5884632,8.3770817 0 0 0 0,16.75276 h 53.52908 v -3.48038 z"
     fill="#ed4a5e"
     id="path371"
     style="stroke-width:1.33731" />
  <path
     d="m 723.7097,764.89036 a 4.4357253,4.8967008 0 1 1 0,-9.792 h 51.1502 v 9.792 z"
     fill="#f4e1e4"
     id="path373"
     style="stroke-width:1.33731" />
  <rect
     x="753.18781"
     y="755.09845"
     width="21.67205"
     height="9.791996"
     fill="#442228"
     opacity="0.2"
     id="rect375"
     style="stroke-width:1.33731" />
  <rect
     x="753.18781"
     y="751.61804"
     width="24.050922"
     height="3.4129372"
     fill="#442228"
     opacity="0.2"
     id="rect377"
     style="stroke-width:1.33731" />
  <rect
     x="753.18781"
     y="764.89044"
     width="24.050922"
     height="3.4129372"
     fill="#442228"
     opacity="0.2"
     id="rect379"
     style="stroke-width:1.33731" />
  <path
     d="m 102.94871,817.47826 a 8.3610558,9.2299648 0 1 1 16.72084,0 z"
     fill="#ed4a5e"
     id="path381"
     style="stroke-width:1.33731" />
  <path
     d="m 115.48966,817.47826 a 4.1811643,4.6156849 0 1 1 8.36106,0 z"
     fill="#e0445e"
     id="path383"
     style="stroke-width:1.33731" />
</svg>
